<?xml version="1.0" standalone="no"?>
<!DOCTYPE svg PUBLIC "-//W3C//DTD SVG 20010904//EN"
 "http://www.w3.org/TR/2001/REC-SVG-20010904/DTD/svg10.dtd">
<svg version="1.0" xmlns="http://www.w3.org/2000/svg"
 width="512.000000pt" height="512.000000pt" viewBox="0 0 512.000000 512.000000"
 preserveAspectRatio="xMidYMid meet">
<metadata>
Created by potrace 1.14, written by Peter Selinger 2001-2017
</metadata>
<g transform="translate(0.000000,512.000000) scale(0.100000,-0.100000)"
fill="#000000" stroke="none">
<path d="M2429 4186 c-2 -2 -29 -6 -59 -9 -365 -35 -682 -270 -831 -617 -74
-172 -99 -318 -94 -555 8 -398 115 -666 365 -913 182 -179 483 -310 760 -331
14 -1 16 -58 15 -494 0 -270 2 -501 5 -512 5 -19 14 -20 133 -20 121 -1 128 0
132 20 2 11 3 239 3 508 -1 268 1 489 4 492 3 3 25 8 49 11 24 3 67 9 94 14
28 5 66 12 85 15 56 9 233 71 302 106 299 150 525 445 612 803 32 127 39 190
40 341 3 289 -75 549 -223 746 -62 82 -188 203 -269 258 -217 147 -475 176
-673 75 -111 -56 -223 -193 -253 -312 -36 -138 -39 -225 -40 -1109 0 -704 -2
-793 -16 -793 -23 0 -98 28 -161 59 -228 113 -374 303 -449 586 -11 44 -23 94
-25 110 -3 17 -7 41 -10 55 -19 91 -26 396 -13 555 8 99 42 266 70 349 74 219
219 378 408 447 64 24 65 24 64 62 0 34 -14 63 -25 53z m804 -330 c184 -91
345 -375 393 -695 10 -64 11 -404 1 -471 -61 -430 -294 -689 -700 -773 l-67
-15 -1 27 c-2 61 -1 1524 1 1608 5 160 17 210 70 282 56 77 188 93 303 37z"/>
</g>
</svg>
